<svg width="122.88" height="122.88" xmlns="http://www.w3.org/2000/svg">

 <g>
  <title>Layer 1</title>
  <path stroke="null" id="svg_8" d="m17.86856,29.65429l87.5,0l0,63.92857l-87.5,0l0,-63.92857z" opacity="undefined" fill="#fff"/>
  <path fill="#000000" id="svg_1" clip-rule="evenodd" fill-rule="evenodd" d="m17.89,0l88.9,0c8.85,0 16.1,7.24 16.1,16.1l0,90.68c0,8.85 -7.24,16.1 -16.1,16.1l-90.69,0c-8.85,0 -16.1,-7.24 -16.1,-16.1l0,-88.9c0,-9.83 8.05,-17.88 17.89,-17.88zm1.08,31.06l17.82,0l6.41,33.9l9.39,-33.9l17.68,0l9.46,33.96l6.45,-33.96l17.74,0l-13.4,60.76l-18.42,0l-10.66,-38.26l-10.59,38.26l-18.39,0l-13.49,-60.76z"/>
 </g>
</svg>